<svg xmlns="http://www.w3.org/2000/svg" viewBox="0 0 96 96">
  <defs>
    <radialGradient id="picksBackground" cx="50%" cy="45%" r="65%">
      <stop offset="0" stop-color="#ffb6c8" />
      <stop offset="0.45" stop-color="#dc143c" />
      <stop offset="1" stop-color="#240108" />
    </radialGradient>
    <linearGradient id="pickHandle" x1="0%" y1="0%" x2="0%" y2="100%">
      <stop offset="0" stop-color="#36030d" />
      <stop offset="1" stop-color="#8d1231" />
    </linearGradient>
    <linearGradient id="pickSteel" x1="0%" y1="50%" x2="100%" y2="50%">
      <stop offset="0" stop-color="#ffe6ec" />
      <stop offset="1" stop-color="#ffbdcf" />
    </linearGradient>
  </defs>
  <rect width="96" height="96" rx="26" fill="url(#picksBackground)" />
  <g opacity="0.35" stroke="#ffdae2" stroke-width="6" fill="none">
    <circle cx="48" cy="48" r="30" />
    <circle cx="48" cy="48" r="22" />
  </g>
  <g transform="rotate(-38 48 48)">
    <rect x="45" y="20" width="6" height="56" rx="3" fill="url(#pickHandle)" />
    <path d="M16 34c11-13 25-20 32-20s21 7 32 20l-8 8c-8-10-16-14-24-14s-16 4-24 14z" fill="url(#pickSteel)" />
    <circle cx="48" cy="74" r="5" fill="#ffeef4" />
  </g>
  <g transform="rotate(38 48 48)">
    <rect x="45" y="20" width="6" height="56" rx="3" fill="url(#pickHandle)" />
    <path d="M16 34c11-13 25-20 32-20s21 7 32 20l-8 8c-8-10-16-14-24-14s-16 4-24 14z" fill="url(#pickSteel)" />
    <circle cx="48" cy="74" r="5" fill="#ffeef4" />
  </g>
  <circle cx="48" cy="48" r="8" fill="#ffeef4" opacity="0.9" />
</svg>
